<?xml version="1.0"?>
<svg xmlns="http://www.w3.org/2000/svg" xmlns:xlink="http://www.w3.org/1999/xlink" xmlns:svgjs="http://svgjs.com/svgjs" version="1.1" width="512" height="512" x="0" y="0" viewBox="0 0 408.8 408.8" style="enable-background:new 0 0 512 512" xml:space="preserve" class=""><g>
<g xmlns="http://www.w3.org/2000/svg">
	<polygon style="" points="176.8,291.6 204.4,208 34.4,107.2 5.6,191.2 91.2,241.2  " fill="#c99e79" data-original="#c99e79"/>
	<polygon style="" points="204.4,7.2 290,57.2 375.2,107.6 290,157.6 203.6,208.4 118.8,157.6 33.6,107.6 118.8,57.2     " fill="#643513" data-original="#643513"/>
	<polygon style="" points="203.6,208.4 203.6,403.6 33.6,305.2 33.6,207.6 91.2,241.2 176.8,291.6  " fill="#926e43" data-original="#926e43"/>
	<polygon style="" points="33.6,107.6 0,105.2 171.2,5.2 204.4,7.2 118.8,57.2  " fill="#d9ac80" data-original="#d9ac80" class=""/>
	<path style="" d="M375.2,113.2v-5.6l-1.6,0.8L375.2,113.2z M203.6,208.4v195.2l170-98.4l0.8-98.4l-58.8,34.4   L230,291.6L203.6,208.4z" fill="#a67e4f" data-original="#a67e4f"/>
	<g>
		<polygon style="" points="230,291.6 203.6,208.4 373.6,107.6 401.2,191.2 315.6,241.2   " fill="#d9ac80" data-original="#d9ac80" class=""/>
		<polygon style="" points="375.2,107.6 408.8,105.2 237.6,5.2 204.4,7.2 290,57.2   " fill="#d9ac80" data-original="#d9ac80" class=""/>
	</g>
	<polygon style="" points="204.4,140.4 204.4,7.2 118.8,57.2 33.6,107.6 118.8,157.6 146.4,174  " fill="#8d5122" data-original="#8d5122"/>
	<polygon style="" points="204.4,7.2 204.4,140.4 262,173.6 373.6,107.6 373.6,108.4 375.2,107.6 290,57.2  " fill="#77411b" data-original="#77411b"/>
</g>
<g xmlns="http://www.w3.org/2000/svg">
</g>
<g xmlns="http://www.w3.org/2000/svg">
</g>
<g xmlns="http://www.w3.org/2000/svg">
</g>
<g xmlns="http://www.w3.org/2000/svg">
</g>
<g xmlns="http://www.w3.org/2000/svg">
</g>
<g xmlns="http://www.w3.org/2000/svg">
</g>
<g xmlns="http://www.w3.org/2000/svg">
</g>
<g xmlns="http://www.w3.org/2000/svg">
</g>
<g xmlns="http://www.w3.org/2000/svg">
</g>
<g xmlns="http://www.w3.org/2000/svg">
</g>
<g xmlns="http://www.w3.org/2000/svg">
</g>
<g xmlns="http://www.w3.org/2000/svg">
</g>
<g xmlns="http://www.w3.org/2000/svg">
</g>
<g xmlns="http://www.w3.org/2000/svg">
</g>
<g xmlns="http://www.w3.org/2000/svg">
</g>
</g></svg>
