<?xml version="1.0"?>
<svg xmlns="http://www.w3.org/2000/svg" xmlns:xlink="http://www.w3.org/1999/xlink" xmlns:svgjs="http://svgjs.com/svgjs" version="1.1" width="512" height="512" x="0" y="0" viewBox="0 0 512 512" style="enable-background:new 0 0 512 512" xml:space="preserve"><g><g xmlns="http://www.w3.org/2000/svg"><g><g><path d="m60.5 0h30v512h-30z" fill="#557f89" data-original="#557f89" style=""/><path d="m75.5 0h15v512h-15z" fill="#304b59" data-original="#304b59" style=""/></g><g><path d="m30.5 362h90v90h-90z" fill="#ff8d6e" data-original="#ff8d6e" style=""/><path d="m75.5 362h45v90h-45z" fill="#ed6666" data-original="#ed6666" style=""/></g></g><g><g><path d="m421.5 0h30v512h-30z" fill="#557f89" data-original="#557f89" style=""/><path d="m436.5 0h15v512h-15z" fill="#304b59" data-original="#304b59" style=""/></g><g><path d="m391.5 362.13h90v90h-90z" fill="#00c2f3" data-original="#00c2f3" style=""/><path d="m436.5 362.13h45v90h-45z" fill="#1e90ff" data-original="#1e90ff" style=""/></g></g><g><g><path d="m180.5 0h30v512h-30z" fill="#557f89" data-original="#557f89" style=""/><path d="m195.5 0h15v512h-15z" fill="#304b59" data-original="#304b59" style=""/></g><g><path d="m150.5 53.652h90v90h-90z" fill="#00c2f3" data-original="#00c2f3" style=""/><path d="m195.5 53.652h45v90h-45z" fill="#1e90ff" data-original="#1e90ff" style=""/></g></g><g><g><path d="m301.5 0h30v512h-30z" fill="#557f89" data-original="#557f89" style=""/><path d="m316.5 0h15v512h-15z" fill="#304b59" data-original="#304b59" style=""/></g><g><path d="m271.5 222h90v90h-90z" fill="#ff8d6e" data-original="#ff8d6e" style=""/><path d="m316.5 222h45v90h-45z" fill="#ed6666" data-original="#ed6666" style=""/></g></g></g></g></svg>
